<svg id="Layer_1" data-name="Layer 1" xmlns="http://www.w3.org/2000/svg" viewBox="0 0 128 32"><defs><style>.cls-1{fill:none;stroke:#acadae;stroke-miterlimit:10;}</style></defs><title>分隔線</title><g id="圖層_4" data-name="圖層 4"><path class="cls-1" d="M4.79,15S28,0.77,63.94,15,126,15,126,15"/><path class="cls-1" d="M4.79,15S28,6.48,63.94,15,126,15,126,15"/><path class="cls-1" d="M4.79,15S28,12.18,63.94,15,126,15,126,15"/><path class="cls-1" d="M4.79,15S28,17.88,63.94,15,126,15,126,15"/><path class="cls-1" d="M4.79,15S28,23.59,63.94,15,126,15,126,15"/><path class="cls-1" d="M4.79,15S28,29.29,63.94,15,126,15,126,15"/></g></svg>