<svg id="Layer_1" data-name="Layer 1" xmlns="http://www.w3.org/2000/svg" viewBox="0 0 512 128"><defs><style>.cls-1{opacity:0.16;}.cls-2{fill:none;stroke:#2f6d47;stroke-miterlimit:10;}</style></defs><title>hero_line</title><g class="cls-1"><line class="cls-2" x1="9.42" y1="106.25" x2="501" y2="106.25"/><line class="cls-2" x1="24.6" y1="101.45" x2="485.81" y2="101.45"/><line class="cls-2" x1="39.79" y1="96.65" x2="470.63" y2="96.65"/><line class="cls-2" x1="54.97" y1="91.85" x2="455.44" y2="91.85"/><line class="cls-2" x1="70.16" y1="87.04" x2="440.26" y2="87.04"/><line class="cls-2" x1="85.34" y1="82.24" x2="425.07" y2="82.24"/><line class="cls-2" x1="100.53" y1="77.44" x2="409.89" y2="77.44"/><line class="cls-2" x1="115.71" y1="72.64" x2="394.7" y2="72.64"/><line class="cls-2" x1="130.9" y1="67.83" x2="379.52" y2="67.83"/><line class="cls-2" x1="146.08" y1="63.03" x2="364.33" y2="63.03"/><line class="cls-2" x1="161.27" y1="58.23" x2="349.15" y2="58.23"/><line class="cls-2" x1="176.45" y1="53.43" x2="333.96" y2="53.43"/><line class="cls-2" x1="191.64" y1="48.63" x2="318.78" y2="48.63"/><line class="cls-2" x1="206.82" y1="43.82" x2="303.59" y2="43.82"/><line class="cls-2" x1="222.01" y1="39.02" x2="288.41" y2="39.02"/><line class="cls-2" x1="237.19" y1="34.22" x2="273.22" y2="34.22"/><line class="cls-2" x1="252.38" y1="29.42" x2="258.04" y2="29.42"/></g></svg>